<mxfile host="app.diagrams.net" modified="2022-04-06T03:04:53.811Z" agent="5.0 (Windows NT 10.0; Win64; x64) AppleWebKit/537.36 (KHTML, like Gecko) Chrome/98.0.4758.109 Safari/537.36 OPR/84.0.4316.52" etag="NRI4Dv2RlNLJoGqg4kf9" version="17.4.0" type="github">
  <diagram id="TZoMnfLU2BDx9-k30hga" name="Page-1">
    <mxGraphModel dx="997" dy="580" grid="1" gridSize="10" guides="1" tooltips="1" connect="1" arrows="1" fold="1" page="1" pageScale="1" pageWidth="850" pageHeight="1100" math="0" shadow="0">
      <root>
        <mxCell id="0" />
        <mxCell id="1" parent="0" />
        <mxCell id="1ex6nhGH8Mem6hA5X4y0-2" value="Entry Validation" style="text;html=1;strokeColor=none;fillColor=none;align=center;verticalAlign=middle;whiteSpace=wrap;rounded=0;fontSize=18;" parent="1" vertex="1">
          <mxGeometry x="325" y="40" width="200" height="40" as="geometry" />
        </mxCell>
        <mxCell id="1ex6nhGH8Mem6hA5X4y0-11" style="edgeStyle=orthogonalEdgeStyle;rounded=0;orthogonalLoop=1;jettySize=auto;html=1;exitX=1;exitY=0.5;exitDx=0;exitDy=0;entryX=0;entryY=0.5;entryDx=0;entryDy=0;fontSize=14;fillColor=#ffe6cc;strokeColor=#d79b00;strokeWidth=3;" parent="1" source="1ex6nhGH8Mem6hA5X4y0-3" target="1ex6nhGH8Mem6hA5X4y0-8" edge="1">
          <mxGeometry relative="1" as="geometry" />
        </mxCell>
        <mxCell id="1ex6nhGH8Mem6hA5X4y0-16" style="edgeStyle=orthogonalEdgeStyle;rounded=0;orthogonalLoop=1;jettySize=auto;html=1;exitX=1;exitY=0.5;exitDx=0;exitDy=0;entryX=0;entryY=0.5;entryDx=0;entryDy=0;fontSize=14;fillColor=#ffe6cc;strokeColor=#d79b00;strokeWidth=3;" parent="1" source="1ex6nhGH8Mem6hA5X4y0-3" target="1ex6nhGH8Mem6hA5X4y0-15" edge="1">
          <mxGeometry relative="1" as="geometry" />
        </mxCell>
        <mxCell id="1ex6nhGH8Mem6hA5X4y0-28" style="edgeStyle=orthogonalEdgeStyle;rounded=0;orthogonalLoop=1;jettySize=auto;html=1;exitX=1;exitY=0.5;exitDx=0;exitDy=0;entryX=0;entryY=0.5;entryDx=0;entryDy=0;fontSize=14;fillColor=#ffe6cc;strokeColor=#d79b00;strokeWidth=3;" parent="1" source="1ex6nhGH8Mem6hA5X4y0-3" target="1ex6nhGH8Mem6hA5X4y0-27" edge="1">
          <mxGeometry relative="1" as="geometry" />
        </mxCell>
        <mxCell id="1ex6nhGH8Mem6hA5X4y0-29" style="edgeStyle=orthogonalEdgeStyle;rounded=0;orthogonalLoop=1;jettySize=auto;html=1;exitX=1;exitY=0.5;exitDx=0;exitDy=0;entryX=0;entryY=0.5;entryDx=0;entryDy=0;fontSize=14;fillColor=#ffe6cc;strokeColor=#d79b00;strokeWidth=3;" parent="1" source="1ex6nhGH8Mem6hA5X4y0-3" target="1ex6nhGH8Mem6hA5X4y0-26" edge="1">
          <mxGeometry relative="1" as="geometry" />
        </mxCell>
        <mxCell id="1ex6nhGH8Mem6hA5X4y0-60" style="edgeStyle=orthogonalEdgeStyle;rounded=0;orthogonalLoop=1;jettySize=auto;html=1;exitX=1;exitY=0.5;exitDx=0;exitDy=0;entryX=0;entryY=0.5;entryDx=0;entryDy=0;fontSize=14;strokeWidth=3;fillColor=#ffe6cc;strokeColor=#d79b00;" parent="1" source="1ex6nhGH8Mem6hA5X4y0-3" target="1ex6nhGH8Mem6hA5X4y0-58" edge="1">
          <mxGeometry relative="1" as="geometry" />
        </mxCell>
        <mxCell id="1ex6nhGH8Mem6hA5X4y0-87" style="edgeStyle=orthogonalEdgeStyle;rounded=0;orthogonalLoop=1;jettySize=auto;html=1;exitX=1;exitY=0.5;exitDx=0;exitDy=0;entryX=0;entryY=0.5;entryDx=0;entryDy=0;fontSize=14;strokeWidth=3;fillColor=#ffe6cc;strokeColor=#d79b00;" parent="1" source="1ex6nhGH8Mem6hA5X4y0-3" target="1ex6nhGH8Mem6hA5X4y0-83" edge="1">
          <mxGeometry relative="1" as="geometry" />
        </mxCell>
        <mxCell id="1ex6nhGH8Mem6hA5X4y0-91" style="edgeStyle=orthogonalEdgeStyle;rounded=0;orthogonalLoop=1;jettySize=auto;html=1;exitX=1;exitY=0.5;exitDx=0;exitDy=0;entryX=0;entryY=0.5;entryDx=0;entryDy=0;fontSize=14;strokeWidth=3;fillColor=#ffe6cc;strokeColor=#d79b00;" parent="1" source="1ex6nhGH8Mem6hA5X4y0-3" target="1ex6nhGH8Mem6hA5X4y0-90" edge="1">
          <mxGeometry relative="1" as="geometry" />
        </mxCell>
        <mxCell id="1ex6nhGH8Mem6hA5X4y0-3" value="Checks before setting entry" style="rounded=0;whiteSpace=wrap;html=1;fontSize=14;" parent="1" vertex="1">
          <mxGeometry x="20" y="230" width="120" height="50" as="geometry" />
        </mxCell>
        <mxCell id="1ex6nhGH8Mem6hA5X4y0-20" style="edgeStyle=orthogonalEdgeStyle;rounded=0;orthogonalLoop=1;jettySize=auto;html=1;exitX=1;exitY=0.5;exitDx=0;exitDy=0;entryX=0;entryY=0.5;entryDx=0;entryDy=0;fontSize=14;fillColor=#ffe6cc;strokeColor=#d79b00;strokeWidth=3;" parent="1" source="1ex6nhGH8Mem6hA5X4y0-8" target="1ex6nhGH8Mem6hA5X4y0-19" edge="1">
          <mxGeometry relative="1" as="geometry" />
        </mxCell>
        <mxCell id="1ex6nhGH8Mem6hA5X4y0-8" value="Check if entry is 0 and if button is 0" style="rounded=1;whiteSpace=wrap;html=1;fontSize=14;" parent="1" vertex="1">
          <mxGeometry x="200" y="200" width="230" height="60" as="geometry" />
        </mxCell>
        <mxCell id="1ex6nhGH8Mem6hA5X4y0-18" value="" style="edgeStyle=orthogonalEdgeStyle;rounded=0;orthogonalLoop=1;jettySize=auto;html=1;fontSize=14;fillColor=#ffe6cc;strokeColor=#d79b00;strokeWidth=3;" parent="1" source="1ex6nhGH8Mem6hA5X4y0-15" target="1ex6nhGH8Mem6hA5X4y0-17" edge="1">
          <mxGeometry relative="1" as="geometry" />
        </mxCell>
        <mxCell id="1ex6nhGH8Mem6hA5X4y0-15" value="Check if button is &quot;.&quot; and &quot;.&quot; is already in entry" style="rounded=1;whiteSpace=wrap;html=1;fontSize=14;" parent="1" vertex="1">
          <mxGeometry x="200" y="120" width="230" height="60" as="geometry" />
        </mxCell>
        <mxCell id="1ex6nhGH8Mem6hA5X4y0-17" value="Do nothing and return" style="rounded=1;whiteSpace=wrap;html=1;fontSize=14;fillColor=#d5e8d4;strokeColor=#82b366;" parent="1" vertex="1">
          <mxGeometry x="490" y="120" width="120" height="60" as="geometry" />
        </mxCell>
        <mxCell id="1ex6nhGH8Mem6hA5X4y0-19" value="Do nothing and return" style="rounded=1;whiteSpace=wrap;html=1;fontSize=14;fillColor=#d5e8d4;strokeColor=#82b366;" parent="1" vertex="1">
          <mxGeometry x="490" y="200" width="120" height="60" as="geometry" />
        </mxCell>
        <mxCell id="1ex6nhGH8Mem6hA5X4y0-21" value="Change entry to number" style="rounded=1;whiteSpace=wrap;html=1;fontSize=14;fillColor=#d5e8d4;strokeColor=#82b366;" parent="1" vertex="1">
          <mxGeometry x="490" y="280" width="120" height="60" as="geometry" />
        </mxCell>
        <mxCell id="1ex6nhGH8Mem6hA5X4y0-36" style="edgeStyle=orthogonalEdgeStyle;rounded=0;orthogonalLoop=1;jettySize=auto;html=1;exitX=1;exitY=0.5;exitDx=0;exitDy=0;entryX=0;entryY=0.5;entryDx=0;entryDy=0;fontSize=14;fillColor=#ffe6cc;strokeColor=#d79b00;strokeWidth=3;" parent="1" source="1ex6nhGH8Mem6hA5X4y0-24" target="1ex6nhGH8Mem6hA5X4y0-35" edge="1">
          <mxGeometry relative="1" as="geometry" />
        </mxCell>
        <mxCell id="1ex6nhGH8Mem6hA5X4y0-24" value="entry &amp;amp;&amp;amp; entry !== 0" style="rhombus;whiteSpace=wrap;html=1;fontSize=14;" parent="1" vertex="1">
          <mxGeometry x="620" y="340" width="90" height="100" as="geometry" />
        </mxCell>
        <mxCell id="1ex6nhGH8Mem6hA5X4y0-31" style="edgeStyle=orthogonalEdgeStyle;rounded=0;orthogonalLoop=1;jettySize=auto;html=1;exitX=1;exitY=0.5;exitDx=0;exitDy=0;entryX=0;entryY=0.5;entryDx=0;entryDy=0;fontSize=14;fillColor=#ffe6cc;strokeColor=#d79b00;strokeWidth=3;" parent="1" source="1ex6nhGH8Mem6hA5X4y0-26" target="1ex6nhGH8Mem6hA5X4y0-24" edge="1">
          <mxGeometry relative="1" as="geometry" />
        </mxCell>
        <mxCell id="1ex6nhGH8Mem6hA5X4y0-34" style="edgeStyle=orthogonalEdgeStyle;rounded=0;orthogonalLoop=1;jettySize=auto;html=1;exitX=1;exitY=0.5;exitDx=0;exitDy=0;entryX=0;entryY=0.5;entryDx=0;entryDy=0;fontSize=14;fillColor=#ffe6cc;strokeColor=#d79b00;strokeWidth=3;" parent="1" source="1ex6nhGH8Mem6hA5X4y0-26" target="1ex6nhGH8Mem6hA5X4y0-33" edge="1">
          <mxGeometry relative="1" as="geometry" />
        </mxCell>
        <mxCell id="1ex6nhGH8Mem6hA5X4y0-43" style="edgeStyle=orthogonalEdgeStyle;rounded=0;orthogonalLoop=1;jettySize=auto;html=1;exitX=1;exitY=0.5;exitDx=0;exitDy=0;entryX=0;entryY=0.5;entryDx=0;entryDy=0;fontSize=14;fillColor=#ffe6cc;strokeColor=#d79b00;strokeWidth=3;" parent="1" source="1ex6nhGH8Mem6hA5X4y0-26" target="1ex6nhGH8Mem6hA5X4y0-40" edge="1">
          <mxGeometry relative="1" as="geometry" />
        </mxCell>
        <mxCell id="1ex6nhGH8Mem6hA5X4y0-26" value="When making number negative, check if entry exists &amp;amp;&amp;amp; is entry 0" style="rounded=1;whiteSpace=wrap;html=1;fontSize=14;" parent="1" vertex="1">
          <mxGeometry x="200" y="370" width="230" height="60" as="geometry" />
        </mxCell>
        <mxCell id="1ex6nhGH8Mem6hA5X4y0-30" style="edgeStyle=orthogonalEdgeStyle;rounded=0;orthogonalLoop=1;jettySize=auto;html=1;exitX=1;exitY=0.5;exitDx=0;exitDy=0;fontSize=14;fillColor=#ffe6cc;strokeColor=#d79b00;strokeWidth=3;" parent="1" source="1ex6nhGH8Mem6hA5X4y0-27" target="1ex6nhGH8Mem6hA5X4y0-21" edge="1">
          <mxGeometry relative="1" as="geometry" />
        </mxCell>
        <mxCell id="1ex6nhGH8Mem6hA5X4y0-27" value="Check if entry is 0 and button is number other than 0" style="rounded=1;whiteSpace=wrap;html=1;fontSize=14;" parent="1" vertex="1">
          <mxGeometry x="200" y="280" width="230" height="60" as="geometry" />
        </mxCell>
        <mxCell id="1ex6nhGH8Mem6hA5X4y0-39" style="edgeStyle=orthogonalEdgeStyle;rounded=0;orthogonalLoop=1;jettySize=auto;html=1;exitX=1;exitY=0.5;exitDx=0;exitDy=0;fontSize=14;fillColor=#ffe6cc;strokeColor=#d79b00;strokeWidth=3;" parent="1" source="1ex6nhGH8Mem6hA5X4y0-33" target="1ex6nhGH8Mem6hA5X4y0-38" edge="1">
          <mxGeometry relative="1" as="geometry" />
        </mxCell>
        <mxCell id="1ex6nhGH8Mem6hA5X4y0-33" value="entry &amp;amp;&amp;amp; entry === 0" style="rhombus;whiteSpace=wrap;html=1;fontSize=14;" parent="1" vertex="1">
          <mxGeometry x="620" y="450" width="90" height="100" as="geometry" />
        </mxCell>
        <mxCell id="1ex6nhGH8Mem6hA5X4y0-35" value="setEntry(`(-${entry})`);" style="rounded=1;whiteSpace=wrap;html=1;fontSize=14;fillColor=#d5e8d4;strokeColor=#82b366;" parent="1" vertex="1">
          <mxGeometry x="740" y="360" width="200" height="60" as="geometry" />
        </mxCell>
        <mxCell id="1ex6nhGH8Mem6hA5X4y0-38" value="Do nothing and return" style="rounded=1;whiteSpace=wrap;html=1;fontSize=14;fillColor=#d5e8d4;strokeColor=#82b366;" parent="1" vertex="1">
          <mxGeometry x="750" y="470" width="120" height="60" as="geometry" />
        </mxCell>
        <mxCell id="1ex6nhGH8Mem6hA5X4y0-42" style="edgeStyle=orthogonalEdgeStyle;rounded=0;orthogonalLoop=1;jettySize=auto;html=1;exitX=1;exitY=0.5;exitDx=0;exitDy=0;entryX=0;entryY=0.5;entryDx=0;entryDy=0;fontSize=14;fillColor=#ffe6cc;strokeColor=#d79b00;strokeWidth=3;" parent="1" source="1ex6nhGH8Mem6hA5X4y0-40" target="1ex6nhGH8Mem6hA5X4y0-41" edge="1">
          <mxGeometry relative="1" as="geometry" />
        </mxCell>
        <mxCell id="1ex6nhGH8Mem6hA5X4y0-40" value="!entry" style="rhombus;whiteSpace=wrap;html=1;fontSize=14;" parent="1" vertex="1">
          <mxGeometry x="620" y="560" width="90" height="100" as="geometry" />
        </mxCell>
        <mxCell id="1ex6nhGH8Mem6hA5X4y0-41" value="Do nothing and return" style="rounded=1;whiteSpace=wrap;html=1;fontSize=14;fillColor=#d5e8d4;strokeColor=#82b366;" parent="1" vertex="1">
          <mxGeometry x="750" y="580" width="120" height="60" as="geometry" />
        </mxCell>
        <mxCell id="1ex6nhGH8Mem6hA5X4y0-67" style="edgeStyle=orthogonalEdgeStyle;rounded=0;orthogonalLoop=1;jettySize=auto;html=1;exitX=1;exitY=0.5;exitDx=0;exitDy=0;entryX=0;entryY=0.5;entryDx=0;entryDy=0;fontSize=14;strokeWidth=3;fillColor=#ffe6cc;strokeColor=#d79b00;" parent="1" source="1ex6nhGH8Mem6hA5X4y0-58" target="1ex6nhGH8Mem6hA5X4y0-61" edge="1">
          <mxGeometry relative="1" as="geometry">
            <Array as="points">
              <mxPoint x="480" y="480" />
              <mxPoint x="480" y="730" />
            </Array>
          </mxGeometry>
        </mxCell>
        <mxCell id="1ex6nhGH8Mem6hA5X4y0-68" style="edgeStyle=orthogonalEdgeStyle;rounded=0;orthogonalLoop=1;jettySize=auto;html=1;exitX=1;exitY=0.5;exitDx=0;exitDy=0;entryX=0;entryY=0.5;entryDx=0;entryDy=0;fontSize=14;strokeWidth=3;fillColor=#ffe6cc;strokeColor=#d79b00;" parent="1" source="1ex6nhGH8Mem6hA5X4y0-58" target="1ex6nhGH8Mem6hA5X4y0-63" edge="1">
          <mxGeometry relative="1" as="geometry">
            <Array as="points">
              <mxPoint x="480" y="480" />
              <mxPoint x="480" y="840" />
            </Array>
          </mxGeometry>
        </mxCell>
        <mxCell id="1ex6nhGH8Mem6hA5X4y0-73" style="edgeStyle=orthogonalEdgeStyle;rounded=0;orthogonalLoop=1;jettySize=auto;html=1;exitX=1;exitY=0.5;exitDx=0;exitDy=0;entryX=0;entryY=0.5;entryDx=0;entryDy=0;fontSize=14;strokeWidth=3;fillColor=#ffe6cc;strokeColor=#d79b00;" parent="1" source="1ex6nhGH8Mem6hA5X4y0-58" target="1ex6nhGH8Mem6hA5X4y0-70" edge="1">
          <mxGeometry relative="1" as="geometry">
            <Array as="points">
              <mxPoint x="480" y="480" />
              <mxPoint x="480" y="950" />
            </Array>
          </mxGeometry>
        </mxCell>
        <mxCell id="1ex6nhGH8Mem6hA5X4y0-76" style="edgeStyle=orthogonalEdgeStyle;rounded=0;orthogonalLoop=1;jettySize=auto;html=1;exitX=1;exitY=0.5;exitDx=0;exitDy=0;entryX=0;entryY=0.5;entryDx=0;entryDy=0;fontSize=14;strokeWidth=3;fillColor=#ffe6cc;strokeColor=#d79b00;" parent="1" source="1ex6nhGH8Mem6hA5X4y0-58" target="1ex6nhGH8Mem6hA5X4y0-74" edge="1">
          <mxGeometry relative="1" as="geometry">
            <Array as="points">
              <mxPoint x="480" y="480" />
              <mxPoint x="480" y="1060" />
            </Array>
          </mxGeometry>
        </mxCell>
        <mxCell id="1ex6nhGH8Mem6hA5X4y0-58" value="Check if button is &quot;x&quot;,&quot;÷&quot;,&quot;+&quot;, or &quot;-&quot; &amp;amp;&amp;amp; if entry exists and result exists" style="rounded=1;whiteSpace=wrap;html=1;fontSize=14;" parent="1" vertex="1">
          <mxGeometry x="195" y="450" width="230" height="60" as="geometry" />
        </mxCell>
        <mxCell id="1ex6nhGH8Mem6hA5X4y0-79" style="edgeStyle=orthogonalEdgeStyle;rounded=0;orthogonalLoop=1;jettySize=auto;html=1;exitX=1;exitY=0.5;exitDx=0;exitDy=0;entryX=0;entryY=0.5;entryDx=0;entryDy=0;fontSize=14;strokeWidth=3;fillColor=#ffe6cc;strokeColor=#d79b00;" parent="1" source="1ex6nhGH8Mem6hA5X4y0-61" target="1ex6nhGH8Mem6hA5X4y0-62" edge="1">
          <mxGeometry relative="1" as="geometry" />
        </mxCell>
        <mxCell id="1ex6nhGH8Mem6hA5X4y0-61" value="button [x÷+-] &amp;amp;&amp;amp; entry &amp;amp;&amp;amp; !result" style="rhombus;whiteSpace=wrap;html=1;fontSize=14;" parent="1" vertex="1">
          <mxGeometry x="560" y="680" width="140" height="100" as="geometry" />
        </mxCell>
        <mxCell id="1ex6nhGH8Mem6hA5X4y0-62" value="setResult(`${entry} ${button} `);&lt;br&gt;setEntry(&quot;&quot;);" style="rounded=1;whiteSpace=wrap;html=1;fontSize=14;fillColor=#d5e8d4;strokeColor=#82b366;" parent="1" vertex="1">
          <mxGeometry x="750" y="700" width="230" height="60" as="geometry" />
        </mxCell>
        <mxCell id="1ex6nhGH8Mem6hA5X4y0-80" style="edgeStyle=orthogonalEdgeStyle;rounded=0;orthogonalLoop=1;jettySize=auto;html=1;exitX=1;exitY=0.5;exitDx=0;exitDy=0;entryX=0;entryY=0.5;entryDx=0;entryDy=0;fontSize=14;strokeWidth=3;fillColor=#ffe6cc;strokeColor=#d79b00;" parent="1" source="1ex6nhGH8Mem6hA5X4y0-63" target="1ex6nhGH8Mem6hA5X4y0-64" edge="1">
          <mxGeometry relative="1" as="geometry" />
        </mxCell>
        <mxCell id="1ex6nhGH8Mem6hA5X4y0-63" value="button [x÷+-] &amp;amp;&amp;amp; entry &amp;amp;&amp;amp; result" style="rhombus;whiteSpace=wrap;html=1;fontSize=14;" parent="1" vertex="1">
          <mxGeometry x="560" y="790" width="140" height="100" as="geometry" />
        </mxCell>
        <mxCell id="1ex6nhGH8Mem6hA5X4y0-64" value="setResult(`${result} ${button} ${entry} `);&lt;br&gt;setEntry(&quot;&quot;);" style="rounded=1;whiteSpace=wrap;html=1;fontSize=14;fillColor=#d5e8d4;strokeColor=#82b366;" parent="1" vertex="1">
          <mxGeometry x="750" y="810" width="330" height="60" as="geometry" />
        </mxCell>
        <mxCell id="1ex6nhGH8Mem6hA5X4y0-81" style="edgeStyle=orthogonalEdgeStyle;rounded=0;orthogonalLoop=1;jettySize=auto;html=1;exitX=1;exitY=0.5;exitDx=0;exitDy=0;entryX=0;entryY=0.5;entryDx=0;entryDy=0;fontSize=14;strokeWidth=3;fillColor=#ffe6cc;strokeColor=#d79b00;" parent="1" source="1ex6nhGH8Mem6hA5X4y0-70" target="1ex6nhGH8Mem6hA5X4y0-71" edge="1">
          <mxGeometry relative="1" as="geometry" />
        </mxCell>
        <mxCell id="1ex6nhGH8Mem6hA5X4y0-70" value="button [x÷+-] &amp;amp;&amp;amp; !entry &amp;amp;&amp;amp; !result" style="rhombus;whiteSpace=wrap;html=1;fontSize=14;" parent="1" vertex="1">
          <mxGeometry x="560" y="900" width="140" height="100" as="geometry" />
        </mxCell>
        <mxCell id="1ex6nhGH8Mem6hA5X4y0-71" value="Do nothing and return" style="rounded=1;whiteSpace=wrap;html=1;fontSize=14;fillColor=#d5e8d4;strokeColor=#82b366;" parent="1" vertex="1">
          <mxGeometry x="750" y="920" width="120" height="60" as="geometry" />
        </mxCell>
        <mxCell id="1ex6nhGH8Mem6hA5X4y0-82" style="edgeStyle=orthogonalEdgeStyle;rounded=0;orthogonalLoop=1;jettySize=auto;html=1;exitX=1;exitY=0.5;exitDx=0;exitDy=0;entryX=0;entryY=0.5;entryDx=0;entryDy=0;fontSize=14;strokeWidth=3;fillColor=#ffe6cc;strokeColor=#d79b00;" parent="1" source="1ex6nhGH8Mem6hA5X4y0-74" target="1ex6nhGH8Mem6hA5X4y0-75" edge="1">
          <mxGeometry relative="1" as="geometry" />
        </mxCell>
        <mxCell id="1ex6nhGH8Mem6hA5X4y0-74" value="button [x÷+-] &amp;amp;&amp;amp; !entry &amp;amp;&amp;amp; result" style="rhombus;whiteSpace=wrap;html=1;fontSize=14;" parent="1" vertex="1">
          <mxGeometry x="560" y="1010" width="140" height="100" as="geometry" />
        </mxCell>
        <mxCell id="1ex6nhGH8Mem6hA5X4y0-75" value="setResult(${result.slice(0,-2)} ${button} `);" style="rounded=1;whiteSpace=wrap;html=1;fontSize=14;fillColor=#d5e8d4;strokeColor=#82b366;" parent="1" vertex="1">
          <mxGeometry x="750" y="1030" width="300" height="60" as="geometry" />
        </mxCell>
        <mxCell id="1ex6nhGH8Mem6hA5X4y0-88" style="edgeStyle=orthogonalEdgeStyle;rounded=0;orthogonalLoop=1;jettySize=auto;html=1;exitX=1;exitY=0.5;exitDx=0;exitDy=0;entryX=0;entryY=0.5;entryDx=0;entryDy=0;fontSize=14;strokeWidth=3;fillColor=#ffe6cc;strokeColor=#d79b00;" parent="1" source="1ex6nhGH8Mem6hA5X4y0-83" target="1ex6nhGH8Mem6hA5X4y0-84" edge="1">
          <mxGeometry relative="1" as="geometry">
            <Array as="points">
              <mxPoint x="450" y="570" />
              <mxPoint x="450" y="1170" />
            </Array>
          </mxGeometry>
        </mxCell>
        <mxCell id="1ex6nhGH8Mem6hA5X4y0-99" style="edgeStyle=orthogonalEdgeStyle;rounded=0;orthogonalLoop=1;jettySize=auto;html=1;exitX=1;exitY=0.5;exitDx=0;exitDy=0;entryX=0;entryY=0.5;entryDx=0;entryDy=0;fontSize=14;strokeWidth=3;fillColor=#ffe6cc;strokeColor=#d79b00;" parent="1" source="1ex6nhGH8Mem6hA5X4y0-83" target="1ex6nhGH8Mem6hA5X4y0-97" edge="1">
          <mxGeometry relative="1" as="geometry">
            <Array as="points">
              <mxPoint x="450" y="570" />
              <mxPoint x="450" y="1280" />
            </Array>
          </mxGeometry>
        </mxCell>
        <mxCell id="1ex6nhGH8Mem6hA5X4y0-83" value="Check if button is &quot;.&quot; and !entry OR button is &quot;.&quot; and entry is &quot;0&quot;" style="rounded=1;whiteSpace=wrap;html=1;fontSize=14;" parent="1" vertex="1">
          <mxGeometry x="195" y="540" width="230" height="60" as="geometry" />
        </mxCell>
        <mxCell id="1ex6nhGH8Mem6hA5X4y0-89" style="edgeStyle=orthogonalEdgeStyle;rounded=0;orthogonalLoop=1;jettySize=auto;html=1;exitX=1;exitY=0.5;exitDx=0;exitDy=0;entryX=0;entryY=0.5;entryDx=0;entryDy=0;fontSize=14;strokeWidth=3;fillColor=#ffe6cc;strokeColor=#d79b00;" parent="1" source="1ex6nhGH8Mem6hA5X4y0-84" target="1ex6nhGH8Mem6hA5X4y0-85" edge="1">
          <mxGeometry relative="1" as="geometry" />
        </mxCell>
        <mxCell id="1ex6nhGH8Mem6hA5X4y0-84" value="button === &quot;.&quot; &amp;amp;&amp;amp; !entry" style="rhombus;whiteSpace=wrap;html=1;fontSize=14;" parent="1" vertex="1">
          <mxGeometry x="560" y="1120" width="140" height="100" as="geometry" />
        </mxCell>
        <mxCell id="1ex6nhGH8Mem6hA5X4y0-85" value="setEntry(&quot;0.&quot;);" style="rounded=1;whiteSpace=wrap;html=1;fontSize=14;fillColor=#d5e8d4;strokeColor=#82b366;" parent="1" vertex="1">
          <mxGeometry x="750" y="1140" width="150" height="60" as="geometry" />
        </mxCell>
        <mxCell id="1ex6nhGH8Mem6hA5X4y0-92" style="edgeStyle=orthogonalEdgeStyle;rounded=0;orthogonalLoop=1;jettySize=auto;html=1;exitX=1;exitY=0.5;exitDx=0;exitDy=0;fontSize=14;strokeWidth=3;entryX=0;entryY=0.5;entryDx=0;entryDy=0;fillColor=#ffe6cc;strokeColor=#d79b00;" parent="1" source="1ex6nhGH8Mem6hA5X4y0-90" target="1ex6nhGH8Mem6hA5X4y0-93" edge="1">
          <mxGeometry relative="1" as="geometry">
            <mxPoint x="480" y="1360.800048828125" as="targetPoint" />
            <Array as="points">
              <mxPoint x="460" y="650" />
              <mxPoint x="460" y="1390" />
            </Array>
          </mxGeometry>
        </mxCell>
        <mxCell id="1ex6nhGH8Mem6hA5X4y0-90" value="Check if button is number" style="rounded=1;whiteSpace=wrap;html=1;fontSize=14;" parent="1" vertex="1">
          <mxGeometry x="195" y="620" width="230" height="60" as="geometry" />
        </mxCell>
        <mxCell id="1ex6nhGH8Mem6hA5X4y0-94" style="edgeStyle=orthogonalEdgeStyle;rounded=0;orthogonalLoop=1;jettySize=auto;html=1;exitX=1;exitY=0.5;exitDx=0;exitDy=0;fontSize=14;strokeWidth=3;entryX=0;entryY=0.5;entryDx=0;entryDy=0;" parent="1" source="1ex6nhGH8Mem6hA5X4y0-93" target="1ex6nhGH8Mem6hA5X4y0-95" edge="1">
          <mxGeometry relative="1" as="geometry">
            <mxPoint x="730" y="1420" as="targetPoint" />
          </mxGeometry>
        </mxCell>
        <mxCell id="1ex6nhGH8Mem6hA5X4y0-96" value="" style="edgeStyle=orthogonalEdgeStyle;rounded=0;orthogonalLoop=1;jettySize=auto;html=1;fontSize=14;strokeWidth=3;fillColor=#ffe6cc;strokeColor=#d79b00;" parent="1" source="1ex6nhGH8Mem6hA5X4y0-93" target="1ex6nhGH8Mem6hA5X4y0-95" edge="1">
          <mxGeometry relative="1" as="geometry" />
        </mxCell>
        <mxCell id="1ex6nhGH8Mem6hA5X4y0-93" value="button is number" style="rhombus;whiteSpace=wrap;html=1;fontSize=14;" parent="1" vertex="1">
          <mxGeometry x="560" y="1340" width="140" height="100" as="geometry" />
        </mxCell>
        <mxCell id="1ex6nhGH8Mem6hA5X4y0-95" value="setEntry(entry + button);" style="rounded=1;whiteSpace=wrap;html=1;fontSize=14;fillColor=#d5e8d4;strokeColor=#82b366;" parent="1" vertex="1">
          <mxGeometry x="750" y="1360" width="170" height="60" as="geometry" />
        </mxCell>
        <mxCell id="1ex6nhGH8Mem6hA5X4y0-100" style="edgeStyle=orthogonalEdgeStyle;rounded=0;orthogonalLoop=1;jettySize=auto;html=1;exitX=1;exitY=0.5;exitDx=0;exitDy=0;entryX=0;entryY=0.5;entryDx=0;entryDy=0;fontSize=14;strokeWidth=3;fillColor=#ffe6cc;strokeColor=#d79b00;" parent="1" source="1ex6nhGH8Mem6hA5X4y0-97" target="1ex6nhGH8Mem6hA5X4y0-85" edge="1">
          <mxGeometry relative="1" as="geometry" />
        </mxCell>
        <mxCell id="1ex6nhGH8Mem6hA5X4y0-97" value="button === &quot;.&quot; &amp;amp;&amp;amp; entry === &quot;0&quot;" style="rhombus;whiteSpace=wrap;html=1;fontSize=14;" parent="1" vertex="1">
          <mxGeometry x="560" y="1230" width="140" height="100" as="geometry" />
        </mxCell>
        <mxCell id="qKyO0GnTgnFKEl1kSzjn-20" style="edgeStyle=orthogonalEdgeStyle;rounded=0;orthogonalLoop=1;jettySize=auto;html=1;exitX=1;exitY=0.5;exitDx=0;exitDy=0;fontSize=14;" edge="1" parent="1" source="qKyO0GnTgnFKEl1kSzjn-2" target="qKyO0GnTgnFKEl1kSzjn-3">
          <mxGeometry relative="1" as="geometry" />
        </mxCell>
        <mxCell id="qKyO0GnTgnFKEl1kSzjn-21" style="edgeStyle=orthogonalEdgeStyle;rounded=0;orthogonalLoop=1;jettySize=auto;html=1;exitX=1;exitY=0.5;exitDx=0;exitDy=0;entryX=0;entryY=0.5;entryDx=0;entryDy=0;fontSize=14;" edge="1" parent="1" source="qKyO0GnTgnFKEl1kSzjn-2" target="qKyO0GnTgnFKEl1kSzjn-4">
          <mxGeometry relative="1" as="geometry" />
        </mxCell>
        <mxCell id="qKyO0GnTgnFKEl1kSzjn-22" style="edgeStyle=orthogonalEdgeStyle;rounded=0;orthogonalLoop=1;jettySize=auto;html=1;exitX=1;exitY=0.5;exitDx=0;exitDy=0;entryX=0;entryY=0.5;entryDx=0;entryDy=0;fontSize=14;" edge="1" parent="1" source="qKyO0GnTgnFKEl1kSzjn-2" target="qKyO0GnTgnFKEl1kSzjn-5">
          <mxGeometry relative="1" as="geometry" />
        </mxCell>
        <mxCell id="qKyO0GnTgnFKEl1kSzjn-2" value="&lt;font style=&quot;font-size: 14px&quot;&gt;Final result cases&lt;br&gt;&lt;/font&gt;" style="rounded=1;whiteSpace=wrap;html=1;" vertex="1" parent="1">
          <mxGeometry x="200" y="1420" width="190" height="130" as="geometry" />
        </mxCell>
        <mxCell id="qKyO0GnTgnFKEl1kSzjn-17" style="edgeStyle=orthogonalEdgeStyle;rounded=0;orthogonalLoop=1;jettySize=auto;html=1;exitX=1;exitY=0.5;exitDx=0;exitDy=0;entryX=0;entryY=0.5;entryDx=0;entryDy=0;fontSize=14;" edge="1" parent="1" source="qKyO0GnTgnFKEl1kSzjn-3" target="qKyO0GnTgnFKEl1kSzjn-7">
          <mxGeometry relative="1" as="geometry" />
        </mxCell>
        <mxCell id="qKyO0GnTgnFKEl1kSzjn-3" value="button is [/*-+] and !entry and result" style="rhombus;whiteSpace=wrap;html=1;fontSize=14;" vertex="1" parent="1">
          <mxGeometry x="500" y="1470" width="140" height="100" as="geometry" />
        </mxCell>
        <mxCell id="qKyO0GnTgnFKEl1kSzjn-18" style="edgeStyle=orthogonalEdgeStyle;rounded=0;orthogonalLoop=1;jettySize=auto;html=1;exitX=1;exitY=0.5;exitDx=0;exitDy=0;entryX=0;entryY=0.5;entryDx=0;entryDy=0;fontSize=14;" edge="1" parent="1" source="qKyO0GnTgnFKEl1kSzjn-4" target="qKyO0GnTgnFKEl1kSzjn-6">
          <mxGeometry relative="1" as="geometry" />
        </mxCell>
        <mxCell id="qKyO0GnTgnFKEl1kSzjn-4" value="button is [/*-+] and&amp;nbsp; entry and result" style="rhombus;whiteSpace=wrap;html=1;fontSize=14;" vertex="1" parent="1">
          <mxGeometry x="500" y="1580" width="140" height="100" as="geometry" />
        </mxCell>
        <mxCell id="qKyO0GnTgnFKEl1kSzjn-19" style="edgeStyle=orthogonalEdgeStyle;rounded=0;orthogonalLoop=1;jettySize=auto;html=1;exitX=1;exitY=0.5;exitDx=0;exitDy=0;entryX=0;entryY=0.5;entryDx=0;entryDy=0;fontSize=14;" edge="1" parent="1" source="qKyO0GnTgnFKEl1kSzjn-5" target="qKyO0GnTgnFKEl1kSzjn-8">
          <mxGeometry relative="1" as="geometry" />
        </mxCell>
        <mxCell id="qKyO0GnTgnFKEl1kSzjn-5" value="button is [/*-+] and&amp;nbsp; entry and !result" style="rhombus;whiteSpace=wrap;html=1;fontSize=14;" vertex="1" parent="1">
          <mxGeometry x="500" y="1690" width="140" height="100" as="geometry" />
        </mxCell>
        <mxCell id="qKyO0GnTgnFKEl1kSzjn-25" style="edgeStyle=orthogonalEdgeStyle;rounded=0;orthogonalLoop=1;jettySize=auto;html=1;exitX=1;exitY=0.5;exitDx=0;exitDy=0;entryX=0;entryY=0.5;entryDx=0;entryDy=0;fontSize=14;" edge="1" parent="1" source="qKyO0GnTgnFKEl1kSzjn-6" target="qKyO0GnTgnFKEl1kSzjn-13">
          <mxGeometry relative="1" as="geometry" />
        </mxCell>
        <mxCell id="qKyO0GnTgnFKEl1kSzjn-6" value="&lt;div&gt;&amp;nbsp; &amp;nbsp; newResult = `${result} ${entry} ${input}`;&lt;/div&gt;" style="rounded=1;whiteSpace=wrap;html=1;fontSize=14;" vertex="1" parent="1">
          <mxGeometry x="700" y="1600" width="170" height="60" as="geometry" />
        </mxCell>
        <mxCell id="qKyO0GnTgnFKEl1kSzjn-27" style="edgeStyle=orthogonalEdgeStyle;rounded=0;orthogonalLoop=1;jettySize=auto;html=1;exitX=1;exitY=0.5;exitDx=0;exitDy=0;entryX=0;entryY=0.5;entryDx=0;entryDy=0;fontSize=14;" edge="1" parent="1" source="qKyO0GnTgnFKEl1kSzjn-7" target="qKyO0GnTgnFKEl1kSzjn-15">
          <mxGeometry relative="1" as="geometry" />
        </mxCell>
        <mxCell id="qKyO0GnTgnFKEl1kSzjn-7" value="&lt;div&gt;${result.toString().slice(0,-1)}${input}&lt;/div&gt;" style="rounded=1;whiteSpace=wrap;html=1;fontSize=14;" vertex="1" parent="1">
          <mxGeometry x="660" y="1490" width="250" height="60" as="geometry" />
        </mxCell>
        <mxCell id="qKyO0GnTgnFKEl1kSzjn-23" style="edgeStyle=orthogonalEdgeStyle;rounded=0;orthogonalLoop=1;jettySize=auto;html=1;exitX=1;exitY=0.5;exitDx=0;exitDy=0;entryX=0;entryY=0.5;entryDx=0;entryDy=0;fontSize=14;" edge="1" parent="1" source="qKyO0GnTgnFKEl1kSzjn-8" target="qKyO0GnTgnFKEl1kSzjn-11">
          <mxGeometry relative="1" as="geometry" />
        </mxCell>
        <mxCell id="qKyO0GnTgnFKEl1kSzjn-8" value="&lt;div&gt;&amp;nbsp; &amp;nbsp; newResult = `${entry} ${input}`;&lt;/div&gt;" style="rounded=1;whiteSpace=wrap;html=1;fontSize=14;" vertex="1" parent="1">
          <mxGeometry x="700" y="1710" width="170" height="60" as="geometry" />
        </mxCell>
        <mxCell id="qKyO0GnTgnFKEl1kSzjn-24" style="edgeStyle=orthogonalEdgeStyle;rounded=0;orthogonalLoop=1;jettySize=auto;html=1;exitX=1;exitY=0.5;exitDx=0;exitDy=0;entryX=0;entryY=0.5;entryDx=0;entryDy=0;fontSize=14;" edge="1" parent="1" source="qKyO0GnTgnFKEl1kSzjn-11" target="qKyO0GnTgnFKEl1kSzjn-12">
          <mxGeometry relative="1" as="geometry" />
        </mxCell>
        <mxCell id="qKyO0GnTgnFKEl1kSzjn-11" value="" style="shape=image;verticalLabelPosition=bottom;labelBackgroundColor=default;verticalAlign=top;aspect=fixed;imageAspect=0;image=data:image/png,iVBORw0KGgoAAAANSUhEUgAAARoAAABoCAYAAAAuLj/EAAAHlUlEQVR4nO3dT4gcaRnH8d/7vlXVPZlgUJwlFw0J6EokOcjuRfCkxEuuXrIYdg56FySC4Ckn170uCApZc1gWvAYPQRDckwgKhg1mhUj2oNmdgyZm/nVVPY+Hqu6eTnVilH6zTub7SZrM9PS/XL4879vVU+GVd993AUBG8ZN+AQBefIQGQHaEBkB2xbIrXz5mOrduOlm50vN+RQAOlVbS/UnQre2oOzvLZ5dBaL52otW5E0kf7Up//lcthagYJIXu52H6BYAjyeXTL2QuyU0nRqW+/tmolx60eu/BcDxZCM3Lx0znTyR98LBWDFGjqlIRk0KQYmSVBWDOzOQuNdbqUWN6+LDW+ROlPq5tMNkshObcummrjqqKQqOyVJGiyiIphqgQpBCYZgBI7i53ydxUN62a1rRf19qqu448NTQnK9eHE9faqNS4KlWlogtNjAohdMsmWgMcbd4tn9xdZl1oJm2jGKW9Sa3PV8ND8xZCkyQVRReZtapSVZaqUuxCE9mdAdDptma60EwKU6qjpCgzKakZ3H6wGVyVSVVRqCpLjctCRUpKhAbAAdPQtGaKsZUktWZqytS9DfWYQWiKGFWmpCpFFSn1ezR9ZCKpASDJXJ6CYt+EykxNSipifLbQxNAtlWKMSjEqhumDERsA6iITg4JcMnWdmF7CMx5HE2Lo3mWK4cByKbB0AtDphw03KchnrZh2Y+ldHr9i+s7S7Bi9SGQALArqhhL1bQj9lU8qxXDOoSgA/ldP6AeH+wLIjtAAyI7QAMiO0ADIjtAAyI7QAMiO0ADIjtAAyI7QAMiO0ADIjtAAyI7QAMiO0ADIjtAAyI7QAMiO0ADIjtAAyI7QAMiO0ADIjtAAyI7QAMhuGJrh+bkB4Nk8oR+D0Lhc/d/uPuZyc/oDYGZ67m31bfD+yieVYuFMla0kd5O5dXHpz68b5HLrb8QpcYGjbTZ4+Cw4bt51w23ZqbcXQ3N/EvTpkcvMZGZqzbrzbvenvvQYJGO2AY68PjbmrrbvhZlpJNf9yXAYWQjNre2ob65PtGOVJq0pxq5NKfbn4m6JDID50qk1U9O2mrSm1lzH2n39dnu49bsQmjs7US/9Y6KvfGZbTVjTvrrpJk5D87z+FwD+r01DY2aa1I3U1lqvd/SHf9a6s5MGty8ev+K9B0kf1xOdW9/TycplkmxwNwDoBHXbLre249LISEtCI3WTzZ0dDrEBsBrUBEB2hAZAdoQGQHaEBkB2hAZAdoN3nU6tBV3ciDp7PKokQwCeQW3S7UemG1ume7vDA3sXQnNqLejK6UK3tl2/+vuuWnfFGBQUFIIUFMRRe8AR13940vt/zVwpBH3uU2NdOV3ojb82g9gshObiRtStbde9h3uqiqS1lJRSVAxBMVAYAHPm3n3WqTXVbat7D/ckjXVxI+qtDxc/WrkQmrPHo369NdH6qNK4KlQVhcoUFWMXG1oDQJLc+9CYqW5Nk6bR3qTRRzu1vrFRSXpKaMooFUXS+qjS2qjSuCxUFkkpBoXQLaEAoFs6uVpz1U2rvbpRESfa3p8s3dsdbAaPq1Jro0rHx5XGZTkLTbd0YqoBjjrvf8uVHQhNkbq6tO5a9unIQWhGRaFxWWhclhpXpcoiqohRoS8MnQGOtuk2r7urMVOKXWSa1lQ3raTJ4D6D0BQpqiySyiKpKpLKFLvfR8MoA6A3/ZW/sd9Sac1UFmk22TxuEJoUY38J3ZIpxu4t7sAODYCOK8jd5YpK7n0v4my6edwgNCF0l+5dpv74mTA/lgYA5JKCFIIr9Ie/PO2d6UF++qRouhsz+47IAOiF/tjd+Tpn3otlhnNOmE81tAXAfzIdRMJ8Phng00wAsiM0ALIjNACyIzQAsiM0ALIjNACyW3pep//W3euXdO03y35yQZvXXteZVTwJgENrNRNNKlfyMABeTCuZaNTWkqQvfufn+vZXj63kIQG8OJhoAGS30olG+qNubL6l30nSF17XD354QcdX8gQADjMmGgDZrSY0/UTzwc9uauMn7+jqT7+n8395Wz/efFt3V/IEAA4zJhoA2a1kj+bMa7/Q1dcOXvOqvvX9C/rTmzd17fqrunr5y6t4GgCHFEcGA8huJaG5e/2SfvTdA/sx+7/XL9+8KemCNplmgCOPPRoA2a1sj2azvaRrmzfnV3IcDYAeezQAslvNkcGSzlx+R1cvr+rRALxImGgAZEdoAGRHaABkR2gAZEdoAGRHaABkR2gAZEdoAGRHaABkR2gAZDcMjUs+vXwCLwjA4eKaN+NJ0RiExvs/03vMvqM6AHrTQcRnZZn3YpnBhyqnZTJ3uXv/vUtBjDgAJE2nmHkfrL88aSBZCE1tkpmpNVNrrtZcMZiCokJ4Dq8ewKHg6kYaO9CK1kxmptqGt18Ize1HpqJsVDet6qZVilEuV+Gu0JeG3gBH22yx5K7GTHVjs2YUbaPbe8PSLITmxpbpyulGd/Z2tdOHpbWkFINiCLPYADjapsul1lx102pnf6J2b1dfGjV642/D0IRX3n1/YVV1ai3o4kbU2eNRJW9+A3gGtXUrohtbpnu7w42aQWgAYNWYWQBkR2gAZEdoAGT3bziquN1Rq0ixAAAAAElFTkSuQmCC;" vertex="1" parent="1">
          <mxGeometry x="904.71" y="1706.81" width="180" height="66.38" as="geometry" />
        </mxCell>
        <mxCell id="qKyO0GnTgnFKEl1kSzjn-12" value="" style="shape=image;verticalLabelPosition=bottom;labelBackgroundColor=default;verticalAlign=top;aspect=fixed;imageAspect=0;image=data:image/png,iVBORw0KGgoAAAANSUhEUgAAARYAAABnCAYAAADFRG2fAAAIBUlEQVR4nO3dz4tdZx3H8ffzPOeceycTDAanNPijRIRqaLqQuiioG4MSyK5kIRgK+QcCIgFXodsulCysuAmUCBa6LXZhNrVCNkWE0NQRQVOsaTugJmbuzNxzzvdx8Zxz7r2TFpvMk85M5/MKl8zcuXNzsnnzfc459xz3zCtvR0REMvK7vQEi8tmjsIhIdgqLiGRXbH/iyUPGyWXj8SoSdmOLRGTfaIH3p44b657VyWxOWQjLd460nDwS+GAD/vzfGpzHO8Cln7v+CxE5kCKx/wKLQDSOjEq+9wXPY3da3ryTxpEhLE8eMp4+EvjL3RrvPKOqovAB58B7rZhEZMbMiBEaa7nXGHfv1jx9pOTD2lid+FlYTi4ba7WnKgpGZUkRPGUR8M7jHDinaUVEIMZIjGDRqJuWpjW26pq1OnVkISyPV5F3p5GlUcm4KqlCkcLiPc65tAxSW0QOtpiWQzFGzFJYpm2D97A5rflKlZZKQ1gCUBQpKktVRVWWVMGnsHjtXRGRJO1aSWGZFkaoPeAxg0ADbNt5W5WBqiioypJxWVCEQFBYRGROH5bWDO9bAFozmjKkw0RsC0vhPWUIVMFThNDtY+mi4pUWEQEsEoPDd02ozGhCoPD+o8PiXVr6eO8J3uNd/8uKi4iQouIdjghG6kT/cB9zHovzLh0F8m5u+eO0FBKRpBsuooEjDq3ouzG8bP53+iM/wzlxXlERkUWONITQtcF1T86Xwt/3GyIiD2OuHzqlVkSyU1hEJLv7Pt38oG6/eo7X//BRPznF6cvPc2yn/4CI7Ds7n1h8mWEzROSzZMcTC1YD8KUf/Yrvf+vQjt8uWeOdn/+Y63//Gs9eusQ3jmZ6WxH5VOzZiaWtH8nbisinINvEAn/i+oVf8g7AV5/nhxdOsbSDtw1aYYnsW5pYRCS7bBPLP379O569dJXzy2/xxsXL/ObCew9+VGj1Za68dG3uib9y/YVzXAcee+5nnPnuyo43V0Qevb01sXg+9gLereX7Z0Tk0XL9nRAvfLHmztJRlscjDo1KRmVJ6C/09KDv2k8e3/4p58+eeIjN0lEhkb0skq5723aXpZxs1axvbnFk419cfq/cu2feah+LyP6147DcfvUcV37yMrf7J7be4o2XrgGnOP1Q00qio0Ii+9fe2scyRxOLyP6146NCx567wmk7x+sX5o7m7Pg8lhWeuniVp3a6cSKyK/bsPhYR2b92fh4LcOzsVc6fzfFOIvJZoIlFRLJTWEQkO4VFRLJTWEQku8WwxF3aChHZ/+b64Refj93d5LvXWCRaVG9EZNDfu5muDbF7cr4Uw+HmFojRsGgpJt39WR2R2H+yWLdYFTnYhkEjDoGJFlM3ovW3bp6F5f2p4/OjiJmlTy2apfs2d7dSjN6BaXYROfC6uFiMtF0vzIwRkfenafgYwnJj3fOD5SkTq5i2hvepPcF393JuFRURmS2FWjOatmXaGq1FDrVb/H497V0ZwrI68Tz27ynfPLpO45bYIk0vvg/Lbv0vRGRP6cNiZkzrBtqa5XrCH/9TszpJl2pbOKX/zTuBD+spJ5c3ebyKGKALt4nIx3Gk3Sg31v0QFfiIzwqtTjyrE53eIiIPTwURkewUFhHJTmERkewUFhHJTmERkewWjgo9seQ4s+I5cdhTKjki8gnUBjfvGa+tGbc20om0Q1ieWHJcPF5wYz3y29sbtDHivcPhcA4cDp0lJ3LAdR82jN3fZpHgHF/+3JiLxwte/FvDrY04C8uZFc+N9citu5tURWAphHQnROfwTkURkRmLMX1WqDXqtuXW3U1gzJkVzy/ebWdhOXHYc21tyvKoYlwVVEVB2d1i1bs0tYiIxNiFxYy6NaZNw+a04YNJzamVCpgLS+mhKALLo4qlUcW4LCiLQPAO59KSSEQkLYUirUXqpmWzbij8lPWt6bBvdmHn7bgqWRpVHB5XjMtyCEtaCmlqETnoYndVJ5sLSxFSTdoY6T9duBCWUVEwLgvGZcm4KikLT+E9riuKuiJysPUXT4kx0pgRfIpK0xp10wJTYFtYiuApi0BZBKoiUAafrseiUUVEOv0lbH23i6Q1oyzCMLnAtrAE77uHS0sg79MhZ6c9LCKSRBwxRiKeEGPXCz9ML7AtLM6lRzoK1J2/4mbnsoiIEAEHzkVcdzrK9iPHC+fXdgmh35syfKeoiEjHdefKztYxs170Fk/cd7OpRS0Rkf+nHzzcbB4B9CFEEXkEFBYRyU5hEZHsFBYRyU5hEZHsFBYRyU5hEZHsFBYRyU5hEZHsFBYRyU5hEZHsFBYRyU5hEZHsFBYRyU5hEZHsFBYRyU5hEZHsFBYRyU5hEZHsFBYRyU5hEZHsFBYRyU5hEZHsFBYRyU5hEZHsFBYRyU5hEZHsFBYRyU5hEZHsFBYRyU5hEZHsFsMSIfaPXdogEdk/IrNmzEfDL74o/elfMXynyohIpx884lCSWS96xX2/EMFiJMbYfR/BoRFGRIB+Spn1wbrH/AAyhKU2MDNaM1qLtBbxznB4nNuFrReRPSmSRhaba0VrhplRW3rNEJab94yibKiblrppCd4TiRQx4rqyqC8iB9uw+ImRxoy6saEZRdtwczOVZQjLa2vGxeMNq5sbTLqQtBYI3uGdG+IiIgdbv/xpLVI3LZOtKe3mBl8fNbz4zxQW98wrbw8royeWHGdWPCcOe0odiBaRT6C2tOJ5bc24tZFyshAWEZEcNJeISHYKi4hk9z9fjO7wDOZkagAAAABJRU5ErkJggg==;" vertex="1" parent="1">
          <mxGeometry x="1122.62" y="1705" width="188.93" height="70" as="geometry" />
        </mxCell>
        <mxCell id="qKyO0GnTgnFKEl1kSzjn-26" style="edgeStyle=orthogonalEdgeStyle;rounded=0;orthogonalLoop=1;jettySize=auto;html=1;exitX=1;exitY=0.5;exitDx=0;exitDy=0;entryX=0;entryY=0.5;entryDx=0;entryDy=0;fontSize=14;" edge="1" parent="1" source="qKyO0GnTgnFKEl1kSzjn-13" target="qKyO0GnTgnFKEl1kSzjn-14">
          <mxGeometry relative="1" as="geometry" />
        </mxCell>
        <mxCell id="qKyO0GnTgnFKEl1kSzjn-13" value="" style="shape=image;verticalLabelPosition=bottom;labelBackgroundColor=default;verticalAlign=top;aspect=fixed;imageAspect=0;image=data:image/png,iVBORw0KGgoAAAANSUhEUgAAARgAAABmCAYAAAAQ0Y6JAAAIqklEQVR4nO3dXYgdZx3H8e/zzDNzdrPBaHFLiy+loqhp0wuplIIKwaAU9670wmIsKV55E5QS0FKKlHoRiqUXVrxprZVa6G2woAGplYZCEWlI62pRU6xpu6BN7L6dmfk/XjwzczY5u03bs5Nudn+fzWHPy5zZJzc//s/LzONufPJURESkB/6DboCIbF8KGBHpjQJGRHoT1r747C5j34xxVRHJPqgWichloQZeHzpOLnrml9avVbqA+fKemn17Mt5Yhr/8rwTn8Q5w6XPXPhGRHSkS2ydYBKKxZ5Dz1Y96rjxb8+zZ8bIkQKpcbtiT8ddzJd55BkVB8BnOgffqRYnIiJkRI1RW83ZlnDtXcsOenDdLG6tkAsC+GWOh9BQhMMhzQubJQ4Z3HufAOVUvIgIxRmIEi0ZZ1VS1sVqWLJQpR9YNmKuKyKvDyPQgZ6rIKbKQAsZ7nHOpe6SMEdnZYuomxRgxSwEzrCu8h5VhySeL8SV1ASADQkjhMl0UFHlOkfkUMF6jLyKSpKGXFDDDYGSlBzxmkFGNHd8N8hZ5RhECRZ4zlQdClpEpYERkjTZgajO8rwGozajyLE0rXaALmOA9eZZRZJ6QZc0YTBMuXhEjIoBFYubwTSYUZlRZRvD+nQPGu9Ql8t6TeY937UkUMiJCChfvcEQwUk60D3eRdTDOuzRr5N2abpFTF0lEkqbIiAaO2GVFmxvrfqV90s4UdWvrvMJFRM7nSMUITTa45s2NksKf900Rkfdjg/zQMl0R6Y0CRkR6Ey5+yMbOPHWQp/+43icHuOWhO7h6kpOLyGVvsgrG55vUDBHZjiaqYLASgI9/6+d87Yu7NqM9wAIvP/h9Tvzz09x87718/opNOq2IXHJbsoKpy15OKyKX2KZUMPBnThz+GS8DfOoOvnn4ANMTnDZTz0tkW1AFIyK92ZQK5l+/+h033/s4d868wDNHHuLXh19777NI84/xyMPH17zxCid+dJATwJW3/oS5r8xO1FQRufS2TgXj2fBG47Vt3p8RkUvH3fjkqXj4YyVnp69gZmrArkHOIM/J2htOvdcztpXIl37AnbftfR9N0iySyFYWSfflrZvbZS6tliyurLJn+T889Nr5RceWXMmrMRiR7WGigDnz1EEeuesxzrRvrL7AMw8fBw5wy/uqXhLNIolsD1tnDGYNVTAi28NEs0hX3/oIt9hBnj68ZvZn4nUws1x/5HGun6RhIrIlbMkxGBHZHiZbBwNcfdvj3HnbZjRFRLYbVTAi0hsFjIj0RgEjIr1RwIhIb0YBM75vtYjIu7NBfvjR55HmXzrWItGickdEOu3e1DTZEJs3N0qKAGlL2RgNi5ZCpdl/1hGJ7ZXM2jpWZGfrCo7YBU20mHIj2npbU6eAeX3o+MggYmbpKkmztC91s0Vk9A5MtYzIjteEjMVI3eSFmTEg8vpwvAgJACcXPV+fGbJkBcPa8D5lUeabvaprhYuIjLpItRlVXTOsjdoiu+pV/rA4PmcUAOaXPFf+d8gXrlikctOskqoZ3wbMpf5fiMiW1AaMmTEsK6hLZsol/vRWyfzS+C3juksFnj2b8WY5ZN/MClcVEQN0IzkR2YgjDa+cXPTrhgtccC3S/JJnfklLY0RkcyhNRKQ3ChgR6Y0CRkR6o4ARkd4oYESkN90s0jXTjrlZz97dnlyxIyLvQmnw0tvGsQXj9PL4gtwAKVyOXBs4uRj5zZll6hjx3uFwOAcOh1bbiexwzUWNsfltFsmc4xMfmuLItYGj/6jGQiYAzM16Ti5GTp9boQgZ01mWdnZ0Du+ULCIyYjGma5Fqo6xrTp9bAaaYm/X89NXzL3kMAHt3e44vDJkZFEwVgSIE8mbrWO9SFSMiEmMTMGaUtTGsKlaGFW8slRyYLYB1Aib3EELGzKBgelAwlQfykJF5h3OpqyQikrpIkdoiZVWzUlYEP2Rxdbju2G03yDtV5EwPCnZPFUzleRcwqYukKkZkp4vN3aVsTcCELKVKHSPrXb3YBcwgBKbywFSeM1Xk5METvMc1yaJ8EdnZ2uHbGCOVGZlP4VLVRlnVwHDsO13AhMyTh4w8ZBQhI898uh+MShcRabS31vXN0EltRh6yrpK5UBcwmffNw6WukfdpqtppBEZEkogjxkjEk8XY5IXvqpkLdQHjXHqkWaNm/YsbrYURESECDpyLuGYZyzvNNHex00QJ7WhL90rhIiIN16y5HfVrRnmxnlFd40ZVjDJFRC6mLUDcqC4Zo6uORKQ3ChgR6Y0CRkR6o4ARkd4oYESkNwoYEelNuPghF3HqF9zzwG/T8/13c9+3r5v4lCKyPaiCEZHeTFDBLPHig9/hqRfhprueYO46WHnuKPccul+VjIgAPVUwYf1takVkh+klYKrj93PsVB9nFpHLicZgRKQ3EwTMLm743sPMfQaef+B27jl0O/e/8g0O7d+8xonI5U0VjIj0ZsJ1MB/mph8+wU1r3vn7Lyc7o4hsH6pgRKQ3mxowK88d5dHfA/vvZk7LYER2PK2DEZHeTDgG8xbP//i7HPtb83L/3dz36JGJGyUi24PGYESkN5s+iyQi0lIFIyK9UcCISG8UMCLSGwWMiPRGASMivVHAiEhvFDAi0hsFjIj0RgEjIr1RwIhIb0YBEyG2jw+wQSJyeYiMMmOj0PCjg9NPe2T3SmkjIo22AIldoozyYj3dxY5tElmMxBib1xEcKmlEBGirllE+WPPYqBAJAKWBmVGbUVuktoh3hsPj3CVsvYhsaZFUwtiarKjNMDNKGz8+ALz0thHyirKqKauazHsikRAjrkkY5YzIztZ1imKkMqOsrMuMUFe8tDKeMAHg2IJx5NqK+ZVllppAqS0j8w7vXBcyIrKztd2i2iJlVbO0OqReWeZzg4qj/x4PGHfjk6ciwDXTjrlZz97dnlyT1yLyLpSWekDHFozTy+MDMV3AiIhsNtUqItKb/wOJKBpU8aKs3QAAAABJRU5ErkJggg==;" vertex="1" parent="1">
          <mxGeometry x="920" y="1600" width="164.71" height="60" as="geometry" />
        </mxCell>
        <mxCell id="qKyO0GnTgnFKEl1kSzjn-14" value="" style="shape=image;verticalLabelPosition=bottom;labelBackgroundColor=default;verticalAlign=top;aspect=fixed;imageAspect=0;image=data:image/png,iVBORw0KGgoAAAANSUhEUgAAARQAAABmCAYAAAAK7W4HAAAISUlEQVR4nO3dT4hd5R2H8ed933POvZMbm1YasbRFbQXbQFwUu5D+cdGhrSW74qJgGOiym9BSAnUjbrqSSqAI3aQMCAriLtjNbNIWpCKlEEw7VkG7UTPQ1uhMZu455/d28Z5z79xJtE7uO0wm8/3IxcxM5uaMkMf3vO97znEPvfB6REQkA7/fByAitw8FRUSyKXZ+4oEjxsmRcXcVCftxRCJyYLTAe2PHpXXP6oafDcp3jrWcPBZ4/xr848ManMc7wKWvu/4XInIoRWL/CywC0Tg2KPne5z13fdBOg/LAEePBY4E3rtZ45xlUFYUPOAfe68xIRKbMjBihsZaPGuPq1ZoHj5XToJwcGWu1pyoKBmVJETxlEfDO4xw4p9GJiECMkRjBolE3LU1rbNU1a/W2OZS7q8i/xpGFQcmwKqlCkYLiPc65dLqjpogcbjGd9sQYMUtBGbcN3sPmuJ4GJQBFkWKyUFVUZUkVfAqK1+yJiCRp6iQFZVwYofaAx2zHKk9VBqqioCpLhmVBEQJBQRGRbfqgtGZ43wLQmtGUYTYohfeUIVAFTxFCN4fSxcQrKSICWCQGh++aUJnRhEDhdywbe5dOcbz3BO/xrv8mRUVESDHxDkcEI3Wif7kdQXHepVUd77ad5jid8ohI0g0qooEjTlrRd2Nmg0m/kjPZy+YVExGZ5UiDD7o2uO6Tjh1BUTlE5KY5XRwoIhkpKCKSzXVXG+/Wuy+e5g9/vtFXFnn03BJfmPcPmMsaf3/mF7zyNsD9PPzkk3z9zn09IJHb2vwjFF9mOAwRuR3MPULBagC+9Pjv+P43j8z9dkk/sphjVPH28zz3zMuM713isXOL3MGbvPrEac6vzzdS+fCPT/HiSyMe+fUv+ero5t5D5HZ1y45Q2npP3jbRzJHInpj/r5b1f/P/xitnTnP+zGnOn1vh2pxvG/bsTOpNXvn9Ch/u5lv+vcKFM6c5/8TzXOk/d3k5/awvXs5/iCIH1OEcoezWJ/1Xqm+lAxXZX65/jMaZL9Z8sHAno+GAI4OSQVkS+tsXfMIbTFd5urmJ0WtcPHuOt25mlWd1mfPPrtzwS3f9+Dec+u7x3bwb/HOZ5d+ukK6HvJ+Hf/Yt3np2mSv3LvHYzxe5Y3fvlkYqTy2nUcrNvofIbSCS7trWdjdX2tiqWd/cusVGKJ6PvTF2a/n+GBHZG3OPUG6oH2l8+1f89LETN3FYGVZ5bqQfYex2dNF/3+hHPPLDN7j40ohHHj/Oxefm+RlFDq69G6HsEc2hiBw8eXbK/mWRR5/u5ku2XuPisyvAIo/O8X/u/Ks8b/Lq08tc4X4eXtrl3MdnFzl1bhFI+1AAOLHET88t5T5IkQPt1ppD2Ub7UEQOnixzKNddz/OVJX5yZpGFvTvuT2fnKo+u5RHJ4sDNoYjIwbM3qzwiclvTCEVE9pyCIiLZKCgiko2CIiLZzAYl7tNRiMjBF3cEJaZHq6dnl0J6SphFdUZEJvpnG9O1IXafjMTp1vsWiNGwaCki3fNLHZHYX+mrR5GKHG6TAUachCVaTN2INg3Ke2PH5wYRM0vry2bpucbdIwejd2Aaq4gcel1ULEbarhdmxmD7COXSuucHozEbVjFuDe/ThvXgu2cdt4qJiExPeVozmrZl3BqtRY60W9OgrG547vrPmG/cuU7jFtgijVZ8H5R9/AFE5NbRB8XMGNcNtDWjeoO//reevX3Bnz4IXKnHnBxtcncVMUA3ShORj+NI0yWX1j2rG+H6+6GsbnhWN7Q9RUR2T+UQkWwUFBHJRkERkWwUFBHJRkERkWxmVnnuWXCcOu45cdRTKjUi8inUBpc/Mi6sbdt6f8+C4+x9BZfWIy+/e402Rrx3OBzOgcOh3W0ih1x3EWDs/m0WCc7x5c8MOXtfMQ3KqeOeS+uRd65uUhWBhRDSPWWdwzuVRESmLMZ0LU9r1G3LO1c3geE0KCeOelbWxowGFcOqoCoKyu4m1d6lUYqISIxdUMyoW2PcNGyOG97f2Lb1vvRQFIHRoGJhUDEsC8oiELzDuXTqIyKSTnkirUXqpmWzbij8mPWt8eyk7LAqWRhUHB1WDMtyEpR0yqNRishhF7u7Kdm2oBQhreC0Mc4GZVAUDMuCYVkyrErKwlN4j+tKop6IHG79TUxijDRmBJ9i0rSW4rL9NxfBUxaBsghURaAMPt0PRUMTEen0t4r13VRIa0ZZBIrgZ4MSvO9eLp3qeJ+Wjp1mUEQkiThijEQ8IcauF6kdM0FxLr3Sqk63/8RN96KIiBABB85FXLetpF8JntkP26WDfrZk8pFiIiId1+1xnZ63THsxu8HeTUcpaoiI/D/9gKNbCNbFgSKSj4IiItkoKCKSjYIiItkoKCKSjYIiItkoKCKSjYIiItkoKCKSjYIiItkoKCKSjYIiItkoKCKSjYIiItkoKCKSjYIiItkoKCKSjYIiItkoKCKSjYIiItkoKCKSjYIiItkoKCKSjYIiItkoKCKSjYIiItkoKCKSjYIiItkoKCKSjYIiItkoKCKSzWxQIsT+tU8HJCIHR2TaDOKOoMTunz4nk49UFxHp9AOOOBl2THtRXPcbI1iMxBi7jyM4NGQREaAflUz7YN0rRqZBqQ3MjNaM1iKtRbwzHB7n9vHoReSWEklDFNvWitYMM5sG5fJHRlE21E1L3bQE79MQJkZcVxR1ReRwm5zkxEhjRt3YpBlF20yDcmHNOHtfw+rmNTa6gLQWCN7hnZtERUQOt/40p7VI3bRsbI1pN6/xtUGDe+iF1yezI/csOE4d95w46im1oCwin0Jt6QznwprNBkVEZB4ah4hINgqKiGTzP2bzU0mgW4xVAAAAAElFTkSuQmCC;" vertex="1" parent="1">
          <mxGeometry x="1130.59" y="1599" width="167.76" height="62" as="geometry" />
        </mxCell>
        <mxCell id="qKyO0GnTgnFKEl1kSzjn-28" style="edgeStyle=orthogonalEdgeStyle;rounded=0;orthogonalLoop=1;jettySize=auto;html=1;exitX=1;exitY=0.5;exitDx=0;exitDy=0;entryX=0;entryY=0.5;entryDx=0;entryDy=0;fontSize=14;" edge="1" parent="1" source="qKyO0GnTgnFKEl1kSzjn-15" target="qKyO0GnTgnFKEl1kSzjn-16">
          <mxGeometry relative="1" as="geometry" />
        </mxCell>
        <mxCell id="qKyO0GnTgnFKEl1kSzjn-15" value="" style="shape=image;verticalLabelPosition=bottom;labelBackgroundColor=default;verticalAlign=top;aspect=fixed;imageAspect=0;image=data:image/png,iVBORw0KGgoAAAANSUhEUgAAARYAAABkCAYAAABD0B8xAAAHs0lEQVR4nO3dT4gkZxnH8e/7p6pnMouLIbPEg8aIErNkc5DkEFEPJuBlb3sOCzmpF0FkwVPISQiiCJpjIHgJBD0tetlTIuxB8LJk42jAbA7mzxw0m8zsbFfV83io6qqeIZPEmVdnZ+f3Cc3O9FQ3ncuXp96q6gqPvfy6IyJSUDzqDyAidx+FRUSKy8u/PHSPcW7NuL920lF9IhE5Fjrg3Xng2lZkY3v3jDKG5dunO86dTrx3C/76YQMhEgMQ+r+HxQ8iciI5vvgBc8CN07OKJ++LnPmg47UPpnEkQz+pPHo68bebDTFEZnVNjokQIEbtLYnIxMxwh9Y6PmqNmzcbHj1d8X5j4+SSAc6tGZtNpM6ZWVWRU6TKiRgiIUAImlZEBNwddzA3mraj7YzbTcNm03dkV1jur523587qrGKlrqhT7sMSIyGEfjdIbRE52bzfHXJ3zPqwzLuWGGFn3vClejpzJQMkIOc+Kqt1TV1V1Cn2YYlaXRGRXr+00odlno3URCBiBol23G5cvK2rRJ0zdVWxUmVySiSFRUSWLMLSmRFjB0BnRlul/jDRYAxLjpEqJeoUySkNayxDVKLSIiKAOZ4CcWhCbUabEjnGjw9LDP2uT4yRFCMxLF6suIgIfVRiIOBg9J1YPMI+57GEGPqjQDEs7f4E7QqJSG8YLtwg4GMrFt3Ytenih8WRn/GcuKioiMhugX4IYWhDGJ7cW4q46xUiIgexpx86rVZEilNYRKS4/Omb7O+dV57mj3/6uL98lSeefZaH7z3Mu4vIcXW4iSVW+/yhobNDvbOIHGOHmli+cOFFnrmw/Mwmb/zyx1x9qyIdOFmL99DUI3Jc/Y/WWA43sXRNuU8iIv9/RcPy4asvcPUtOHPhRzxy38HfJ+23hyUix8IdeVRIE4vI8XaoNZZd/v4Sv//dm/CVizz5nfX//vUbL/HiC1eWnniTq889zVXgzIVfcP4g7ykiR+LOmVgi+36Bt44wiRwvhSaW61z99RU6vsl3v/8Uqwd5i69d5OKvLqKjQiLH350zsSzRGovI8VYkLO+88jPeAB7+4Q/48uzw76ejQiLHmyYWESnu0Gss8z//vL9e6Fs/5YmHCnwi1nnk0m95pMRbiciRKDaxHPwUfhG52xx6Yqkf/wnPPF7io4jI3UJzhogUp7CISHEKi4gUp7CISHFTWPwTthIR+SR7+hGn5324m/ywjTlurt6IyGhx72aGNvjw5N5SZOhvuepumFsfk+H+rAHHF1cW6xarIifbOGj4GBg377vhtnzr5j4s784Dn585ZoaZDXeSDzDcStFjANPsInLiDXExd7qhF2bGDOfd+TR8ZIBrW5Hvrc3Ztpp5Z8TYtyfF4V7OnaIiItOuUGdG23XMO6Mz557uNq9uTUu2GWBjO3LmX3O+ce8WbVjlNv30EhdhOar/CxG5oyzCYmbMmxa6hrVmm7/8u2Fje/qqtvGU/tc+SLzfzDm3tsP9tWOAvrhNRPYT6JdRrm3FXVGBPdcKbWxHNrZ1aouIHI4qIiLFKSwiUpzCIiLFKSwiUpzCIiLFjUeFHlgNnF+PnD0VqZQbEfkMGoPrHxmXN40bt6YTaTP0Ubn0YObalvOHd27RuRNjIBAIAQIBnSUncsINFxv68K+Zk0Lgi59b4dKDmef/0Y5xyQDn1yPXtpwbN3eoc2I1JVKKxBCIQUURkYm599cKdUbTddy4uQOscH498pu3+8uBMsDZU5Erm3PWZjUrdabOmSpFYuzjoraICID7EBYzms6Yty0785b3thueWq+BpbBUEXJOrM1qVmc1K1WmyokUAyH0u0QiIv2ukNOZ07QdO01LjnO2bs93rc2Oi7crdcXqrObUSs1KVY1h6XeFNLWInHQ+fKuTLYUlDzcU69xZvrpwDMssZ1aqzEpVsVJXVDmSYyQMRVFXRE62xTEfd6c1I8U+Km1nNG0HzMdtx7DkFKlyosqJOieqFPvvY9GoIiKDxVfYxmGJpDOjymmcXBbGsKQYh0fod4Fi7A85B62wiEjPCbg7TiS5D72I4/SyMIYlhP7RHwUazl8J07ksIiI4ECAEJwyno3zckeMxM0NCWKymjL8pKiIyCMO5stN+zNSLZdP8EqapRS0RkU+zGDzCNI+MdFWQiBSnsIhIcQqLiBSnsIhIcQqLiBSnsIhIcQqLiBSnsIhIcQqLiBSnsIhIcQqLiBSnsIhIcQqLiBSnsIhIcQqLiBSnsIhIcQqLiBSnsIhIcQqLiBSnsIhIcQqLiBSnsIhIcQqLiBSnsIhIcQqLiBSnsIhIcQqLiBSnsIhIcQqLiBSnsIhIcQqLiBQ3hcXBF48j/EAicjw4UzP2RiNOG/X/LbYYf1NlRGSwGDx8LMnUi2V51wsczB13H353CGiEERFgMaVMfbDhsXcAyQCNgZnRmdGZ05kTgxGIhHAEn15E7khOP7LYUis6M8yMxqbtMsD1j4xctTRtR9N2pBhxnOxOGMqivoicbOPOjzutGU1rYzNy13J9ZypLBri8aVx6sGVj5xbbQ0g6S6QYiCGMcRGRk22x+9OZ07Qd27fndDu3+Pqs5fl/TmEJj738ugM8sBo4vx45eypS6SC0iHwGjfV7PJc3jRu3poWWMSwiIqX8B2j30G24KmmGAAAAAElFTkSuQmCC;" vertex="1" parent="1">
          <mxGeometry x="930" y="1490" width="166.8" height="60" as="geometry" />
        </mxCell>
        <mxCell id="qKyO0GnTgnFKEl1kSzjn-16" value="" style="shape=image;verticalLabelPosition=bottom;labelBackgroundColor=default;verticalAlign=top;aspect=fixed;imageAspect=0;image=data:image/png,iVBORw0KGgoAAAANSUhEUgAAARcAAABnCAYAAAAqhgahAAAIHUlEQVR4nO3dT4gedx3H8ffvz8yz240ulia0B20rhZpgKkiLVGoPNiBCTgYvQgn0pFKISKl46k2hFDyoPRail0Kpp2Iv0UNbCCgKEpq4tWBT0LRdUJN2/+SZme/Xw8wzzz7Jpq0+O9mk+3mFh+yfyTC5vPnOzO95Jtz//OuOiMgOi7t9ACLyyaS4iMgg8tZv7r3FOLxk3F46abeOSERuCg3wzjhwZi2ysn71nNLH5WvLDYeXE+9uwF/fryBEYgBC+/sw+UJE9iTHJ19gDrixPCp45LbIgYsNr16cHUkytBPLfcuJNy5VxBAZlSU5JkKAGHXmJCJTZoY71NbwQW1culRx33LBe5XNTDAZ4PCSsVpFypwZFQU5RYqciCESAoSgqUVEwN1xB3OjqhvqxrhcVaxWbUeuisvtpfP22FkcFSyUBWXKbVxiJITQnhKpLyJ7m7enRu6OWRuXcVMTI2yOKz5Xzq5qyQAJyLkNy2JZUhYFZYptXKKutohIq73U0sZlnI1URSBiBol6Ztv+gm5ZJMqcKYuChSKTUyIpLiKyxSQujRkxNgA0ZtRFam8fbdHHJcdIkRJliuSUumsuXVii8iIigDmeArFrQmlGnRI5xmvHJYb2NCjGSIqRGCY7UGBEhDYsMRBwMNpOTF7hQ9a5hBjau0MxbDkVCjotEpFWN2C4QcD7Vky6cdXmky8md4T6dXNRYRGRWYF2EKFrQ+h+uF0p4sy/EhH5f2zTjxt8+e1ZTp94lOdOnOTCbh+KiPxPbvC4iMjNKn/0Jtd24YVHefm17X5zDw8+9RQHb51n7xVv/eqnnAMOfv84d8yzKxG57uabXGJxjV9UNDbXnkXkJjfX5HLHsed47NjWn6xy7mc/5PRbBWnOE66N137C7/8E6eEf8+C98+1LRK6/ga65aHIR2et2NC7vv/Isp9+CA8dO8MXb5tjRv07xuxfehLuO861jh3bs+ETk+tHdIhEZxM7F5W8n+c2Lb8Lnj/PIw/vn2NEq506e5D3u4cHjR/jUjh2giFxPN+Tk0lS7fQQiMq8distZTv/iFA1f5evfPcLiHHu68OKP+MM/4MC3fzDnOhkR2U035OQiIje/HYnLhRcmK2m/x12jOXa0cpKXX6ngK09w9KHlnTg0EdklmlxEZBBzx2X8x2fa9xc9NOdKWvsLrz17CjjCN7/zpXkPS0R22Y5NLvMu9xeRT5a53lsEUD7wBI89MO9eLnLu58/wBgUHH9c7oEU+CTRviMgg5p5cdsYyB0/8moO7fRgismM0uYjIIBQXERnENC7+IVuJiHyYbfoRp7/z7in23XbmuLmaIyK9ybOi6drg3Q+3K0WG9hGv7oa5tUHpngcbcHzyiXJ6nKvI3tYPG95Hxs3bbrhd+ajoNi7vjAOfGTlmhpl1T7AP0D220WMA0wwjsud1gTF3mq4XZsYI553x7ACSAc6sRb6xNGbdSsaNEWPboBS7Z0c3CouITE+LGjPqpmHcGI05tzSXeWVt9v5QBlhZjxz495gv37pGHRa5TDvFxElcduN/ISI3nElczIxxVUNTsVSt8+f/VKysp5lt+0V0r15MvFeNOby0ye2lY4A+wF9EriXQXlI5sxavCgtcsUJ3ZT2ysq6lLyIyP5VERAahuIjIIBQXERmE4iIig1BcRGQQ/d2iOxcDR/dHDu2LFEqOiHwMlcHZD4yXVo3zG7OLbTO0YXny7syZNee3FzZo3IkxEAiEAIGAVtKJ7HHdGxS9+9vMSSHw2U8v8OTdmaf/Xs8EJgMc3R85s+acv7RJmROLKZFSJIZADKqKiEyZe/veosaomobzlzaBBY7uj/zy7enbFzPAoX2RU6tjlkYlC2WmzJkiRWJsA6O+iAiAexcXM6rGGNc1m+Oad9crjuwvgSviUkTIObE0KlkclSwUmSInUgyE0J4eiYi0p0VOY05VN2xWNTmOWbs8vupabX9Bd6EsWByV7FsoWSiKPi7taZGmF5G9zrtPhrItccndA8sad658N2Ifl1HOLBSZhaJgoSwociTHSOiqoraI7G2TS7XuTm1Gim1Y6sao6gYYz2zfxyWnSJETRU6UOVGk2H6ei0YWEelMPg43dpdLGjOKnPoJZqs+LinG7hXa06EY29vRQVdcRKTlBNwdJ5Lcu17EforZqo9LCO2rvTvUrW8J07UuIiI4ECAEJ3RLVa51R7nPTZcRJldX+u8UFhHphG497fR8ZtqLK01nmTCdXtQTEfkok+EjTGeSGXoXkYgMQnERkUEoLiIyCMVFRAahuIjIIBQXERmE4iIig1BcRGQQiouIDEJxEZFBKC4iMgjFRUQGobiIyCAUFxEZhOIiIoNQXERkEIqLiAxCcRGRQSguIjIIxUVEBqG4iMggFBcRGYTiIiKDUFxEZBCKi4gMQnERkUEoLiIyCMVFRAahuIjIIBQXERmE4iIig5jGxcEnr108IBG5OTjTZmwXjTjdsP0z2ar/TqURkc5k+PC+JtNeXCnP/CMHc8fdu+8dAhplRASYTCvTPlj32m4IyQCVgZnRmNGY05gTgxGIhHCdj15EblhOO7rYllY0ZpgZlc1umwHOfmDkoqaqG6q6IcWI42R3QlcXNUZkb+tPhNypzahq65uRm5qzm7N1yQAvrRpP3l2zsrnBeheTxhIpBmIIfWBEZG+bnAo15lR1w/rlMc3mBl8Y1Tz9z9m4hPuff90B7lwMHN0fObQvUugGtYh8DJW1Zz4vrRrnN2YvvPRxERHZSZpRRGQQiouIDEJxEZFB/Bc6ut8YPS0aegAAAABJRU5ErkJggg==;" vertex="1" parent="1">
          <mxGeometry x="1135.83" y="1490" width="162.52" height="60" as="geometry" />
        </mxCell>
      </root>
    </mxGraphModel>
  </diagram>
</mxfile>
